#!OML:ASF G:\acrobat\cartwheel_test\acrobat_wednesday\Session 1\acrobatwednesday.ASF
:FULLY-SPECIFIED
:DEGREES
288
root 12.0896 14.3793 12.5947 -122.499 24.8077 -226.359
lowerback 27.1396 2.15027 14.7477
upperback -0.87355 7.81393 9.45689
thorax -14.8408 2.2817 -0.291134
lowerneck -28.2071 -8.26964 -2.86503
upperneck -5.21046 -9.75116 8.13912
head 3.1515 -4.05137 2.02962
rclavicle -1.59028e-013 -4.6118e-014
rhumerus 52.342 -57.6556 -65.2234
rradius 21.2566
rwrist 7.80877
rhand -39.149 -25.4105
rfingers 7.12502
rthumb -12.1474 304.962
lclavicle -1.59028e-013 -4.6118e-014
lhumerus 8.83377 18.9277 -21.7073
lradius 38.7267
lwrist 55.9177
lhand -50.115 -12.3005
lfingers 7.12502
lthumb -22.6995 16.3844
rfemur -74.8217 -382.196 -9.45505
rtibia 52.3109
rfoot -8.13154 24.8268
rtoes -4.67805
lfemur 1.52294 18.234 -22.1824
ltibia 42.6672
lfoot 202.832 176.288
ltoes -33.8972
289
root 12.4856 14.541 12.5554 -122.573 26.8862 -231.869
lowerback 26.449 1.97588 14.6898
upperback -1.19579 7.5701 9.26648
thorax -14.8898 2.21517 -0.374696
lowerneck -29.1432 -7.40902 -2.65091
upperneck -5.75309 -8.42329 6.35924
head 2.91403 -3.43785 1.58778
rclavicle 3.18055e-014 1.78111e-013
rhumerus 59.0072 -57.2641 -68.7202
rradius 21.1796
rwrist 12.0143
rhand -42.5378 -30.4317
rfingers 7.12502
rthumb -15.4132 300.163
lclavicle 3.18055e-014 1.78111e-013
lhumerus 9.08969 19.0028 -21.6211
lradius 39.0103
lwrist 55.7087
lhand -50.6385 -13.1444
lfingers 7.12502
lthumb -23.2018 15.4781
rfemur -70.5795 -384.22 -16.724
rtibia 45.5103
rfoot -14.0169 24.348
rtoes -0.0214142
lfemur 3.62144 19.9536 -19.0608
ltibia 45.4874
lfoot 202.911 180.001
ltoes -41.7089
290
root 12.882 14.7561 12.4869 -123.402 28.9794 -238.113
lowerback 26.0025 1.48502 15.296
upperback -1.7118 7.18337 8.88687
thorax -15.1776 1.99866 -0.954702
lowerneck -30.2263 -6.4097 -2.79596
upperneck -5.01492 -6.94606 5.07766
head 3.13184 -2.73566 1.35482
rclavicle 1.59028e-013 1.20861e-013
rhumerus 63.6433 -56.2603 -69.3224
rradius 21.3166
rwrist 11.9016
rhand -46.4816 -37.7701
rfingers 7.12502
rthumb -19.2089 293.159
lclavicle 1.59028e-013 1.20861e-013
lhumerus 9.27259 18.8836 -21.3405
lradius 39.4421
lwrist 55.4007
lhand -51.0303 -13.8269
lfingers 7.12502
lthumb -23.5776 14.7477
rfemur -63.2654 -385.581 -26.2372
rtibia 36.122
rfoot -20.7177 22.8804
rtoes 2.67273
lfemur 5.23828 20.4335 -16.4527
ltibia 48.2084
lfoot 202.827 182.01
ltoes -45.6001
291
root 13.2895 14.968 12.4077 -124.362 31.1008 -244.246
lowerback 25.2979 1.22212 15.785
upperback -2.11859 6.96397 8.72845
thorax -15.2459 1.87881 -1.28012
lowerneck -31.4527 -5.0146 -1.98984
upperneck -4.11455 -5.17625 2.37838
head 3.3908 -2.00893 0.5336
rclavicle 5.40694e-014 8.26944e-014
rhumerus 69.5268 -55.1666 -70.8771
rradius 21.5332
rwrist 10.8188
rhand -50.9418 -47.6043
rfingers 7.12502
rthumb -23.4928 283.81
lclavicle 5.40694e-014 8.26944e-014
lhumerus 9.06881 19.0193 -20.9992
lradius 40.0411
lwrist 55.37
lhand -50.6458 -15.3016
lfingers 7.12502
lthumb -23.2088 13.32
rfemur -53.3123 -383.701 -38.1285
rtibia 24.2578
rfoot -31.0476 19.8265
rtoes 9.3793
lfemur 6.30238 20.664 -13.6612
ltibia 50.988
lfoot 202.5 184.692
ltoes -49.2798
292
root 13.6924 15.1628 12.3194 -125.313 33.1505 -250.048
lowerback 24.135 1.20505 16.2505
upperback -2.40646 6.90788 8.73556
thorax -14.9412 1.86197 -1.44612
lowerneck -31.8297 -3.68647 -1.70025
upperneck -4.10465 -3.38942 1.06109
head 3.37431 -1.18809 0.258136
rclavicle -1.39944e-013 -5.08889e-014
rhumerus 82.4378 -53.5103 -80.312
rradius 20.3207
rwrist 16.4395
rhand -54.3583 -60.0251
rfingers 7.12502
rthumb -26.7663 271.849
lclavicle -1.39944e-013 -5.08889e-014
lhumerus 8.7954 19.366 -20.7213
lradius 40.5237
lwrist 54.9851
lhand -49.4035 -17.035
lfingers 7.12502
lthumb -22.0164 11.7319
rfemur -42.462 -375.462 -51.6537
rtibia 11.2808
rfoot -44.3304 18.5907
rtoes 11.9993
lfemur 6.77799 20.6176 -10.682
ltibia 53.6711
lfoot 202.016 186.589
ltoes -50.801
293
root 14.0962 15.3179 12.2181 -126.12 35.4705 -254.307
lowerback 23.5352 1.64298 16.6148
upperback -2.60467 7.49985 8.86127
thorax -14.7634 2.11561 -1.65357
lowerneck -31.5271 -2.40876 -1.27551
upperneck -4.4248 -1.84036 0.89392
head 3.21541 -0.423717 0.313305
rclavicle -3.18055e-014 9.22361e-014
rhumerus 93.2175 -50.5167 -88.5852
rradius 19.1729
rwrist 23.9881
rhand -55.741 -70.4304
rfingers 7.12502
rthumb -28.0887 98.3472
lclavicle -3.18055e-014 9.22361e-014
lhumerus 9.10562 20.0474 -20.3067
lradius 40.7301
lwrist 53.3593
lhand -48.3869 -18.4652
lfingers 7.12502
lthumb -21.0401 10.4134
rfemur -35.7822 -362.84 -61.7767
rtibia 1.7639
rfoot -57.2937 23.5545
rtoes 9.40088
lfemur 7.96532 21.142 -6.68301
ltibia 55.8966
lfoot 200.655 189.868
ltoes -51.6619
294
root 14.4944 15.4042 12.124 -127.475 36.9538 -258.682
lowerback 22.8697 2.03908 16.8818
upperback -2.95614 8.01899 9.06732
thorax -14.7652 2.32621 -1.69152
lowerneck -31.7579 -0.918505 0.197834
upperneck -3.65867 -0.4143 0.319885
head 3.47128 0.212448 0.0521026
rclavicle 5.40694e-014 -1.97194e-013
rhumerus 96.4907 -48.3751 -89.6373
rradius 19.4817
rwrist 27.8317
rhand -56.4504 -76.7913
rfingers 7.12502
rthumb -28.7666 104.595
lclavicle 5.40694e-014 -1.97194e-013
lhumerus 10.0878 21.5082 -19.6595
lradius 41.2039
lwrist 51.2997
lhand -48.323 -20.2141
lfingers 7.12502
lthumb -20.9787 8.67138
rfemur -33.2133 -361.489 -63.0826
rtibia 1.85876
rfoot -54.2701 22.9776
rtoes 1.38907
lfemur 8.69428 19.7987 -2.71743
ltibia 57.8687
lfoot 200.023 192.528
ltoes -46.227
295
root 14.9023 15.4619 12.038 -128.786 38.0537 -262.88
lowerback 22.3825 2.47078 17.1547
upperback -3.47742 8.65089 9.20439
thorax -15.0336 2.54936 -1.8464
lowerneck -31.0391 0.114268 -0.074111
upperneck -4.07208 0.971912 2.8625
head 3.24749 1.10907 1.07624
rclavicle 5.56597e-014 1.78111e-013
rhumerus 94.5833 -47.6977 -84.9586
rradius 20.9407
rwrist 28.107
rhand -56.9166 -81.5884
rfingers 7.12502
rthumb -29.2119 109.316
lclavicle 5.56597e-014 1.78111e-013
lhumerus 11.1007 24.1486 -18.858
lradius 42.2023
lwrist 49.6221
lhand -48.165 -22.7252
lfingers 7.12502
lthumb -20.8269 6.17697
rfemur -33.3569 -369.319 -57.947
rtibia 7.46444
rfoot -40.841 26.8819
rtoes 2.59787
lfemur 8.13487 16.6695 -0.219816
ltibia 59.1364
lfoot 197.601 198.251
ltoes -49.5711
296
root 15.319 15.4691 11.941 -129.965 39.8548 -266.251
lowerback 22.3608 3.1822 16.8581
upperback -3.86429 9.58024 9.28872
thorax -15.4358 2.93679 -1.89986
lowerneck -30.5278 1.24126 1.25034
upperneck -5.05374 2.11735 2.34071
head 2.86323 1.65093 0.808841
rclavicle 5.40694e-014 -2.22639e-014
rhumerus 96.089 -45.4678 -85.3589
rradius 21.7181
rwrist 32.4828
rhand -57.4567 -86.4567
rfingers 7.12502
rthumb -29.7275 114.093
lclavicle 5.40694e-014 -2.22639e-014
lhumerus 11.4769 27.171 -18.3084
lradius 43.5837
lwrist 48.3958
lhand -47.3287 -24.6174
lfingers 7.12502
lthumb -20.0232 4.37093
rfemur -34.2335 -374.364 -52.5866
rtibia 13.0718
rfoot -34.0403 21.2273
rtoes 8.41327
lfemur 7.87946 13.4903 1.56354
ltibia 59.8621
lfoot 194.118 201.656
ltoes -38.5045
297
root 15.7235 15.4636 11.8085 -131.398 41.7299 -270.459
lowerback 21.2854 3.68522 16.5807
upperback -4.32693 9.97901 9.08627
thorax -15.3631 3.13217 -2.03336
lowerneck -29.502 2.37348 2.53078
upperneck -6.18533 3.32725 1.24906
head 2.39759 2.18266 0.353615
rclavicle -1.41535e-013 -4.13472e-014
rhumerus 94.023 -44.2247 -81.9772
rradius 22.9479
rwrist 33.939
rhand -57.9221 90.9187
rfingers 7.12502
rthumb -30.1716 118.475
lclavicle -1.41535e-013 -4.13472e-014
lhumerus 11.1009 29.8494 -18.361
lradius 45.1699
lwrist 47.608
lhand -47.9667 -27.0422
lfingers 7.12502
lthumb -20.6364 1.88082
rfemur -34.3917 -379.426 -47.5228
rtibia 18.3047
rfoot -28.2745 18.9836
rtoes 12.3674
lfemur 6.4458 10.9404 1.69479
ltibia 60.8856
lfoot 190.577 202.215
ltoes -27.1232
298
root 16.1216 15.4335 11.6534 -133.39 43.6545 -274.899
lowerback 20.1684 4.04502 16.3788
upperback -4.41508 10.139 8.70462
thorax -15.5321 3.27061 -2.09027
lowerneck -29.334 2.87634 3.56137
upperneck -6.58759 3.64932 0.666528
head 2.30624 2.27466 0.0285191
rclavicle 3.02153e-013 1.33583e-013
rhumerus 45.5347 -46.9619 -63.6437
rradius 58.4866
rwrist 23.8979
rhand -57.9576 96.3359
rfingers 7.12502
rthumb -30.2054 123.886
lclavicle 3.02153e-013 1.33583e-013
lhumerus 10.5364 32.5665 -18.4656
lradius 46.5612
lwrist 46.7938
lhand -50.2732 -30.8707
lfingers 7.12502
lthumb -22.8513 -2.20452
rfemur -33.1342 -381.142 -43.6254
rtibia 22.0135
rfoot -26.3089 18.2838
rtoes 16.7455
lfemur 5.53707 8.3863 1.35074
ltibia 61.0748
lfoot 188.71 200.892
ltoes -19.9359
